<?xml version="1.0" encoding="UTF-8" standalone="no"?>
<!-- Created with Inkscape (http://www.inkscape.org/) -->

<svg
   width="100"
   height="100"
   viewBox="0 0 26.458333 26.458333"
   version="1.1"
   id="svg5"
   xml:space="preserve"
   xmlns="http://www.w3.org/2000/svg"
   xmlns:svg="http://www.w3.org/2000/svg"><defs
     id="defs2"><clipPath
       clipPathUnits="userSpaceOnUse"
       id="clipPath759"><path
         id="path761"
         style="stroke-width:10.5264;stroke-linejoin:round"
         d="m 339.83578,-43.224762 h 135.0668 l 7.4666,7.466605 v 22.566791 l -7.4666,7.4666042 h -135.0668 l -7.46662,-7.4666042 v -22.566791 z" /></clipPath><clipPath
       clipPathUnits="userSpaceOnUse"
       id="clipPath759-2"><path
         id="path761-9"
         style="stroke-width:10.5264;stroke-linejoin:round"
         d="m 339.83578,-43.224762 h 135.0668 l 7.4666,7.466605 v 22.566791 l -7.4666,7.4666042 h -135.0668 l -7.46662,-7.4666042 v -22.566791 z" /></clipPath><clipPath
       clipPathUnits="userSpaceOnUse"
       id="clipPath4190"><path
         id="path4192"
         style="fill:none;stroke:#ffff00;stroke-width:0.441703;stroke-linejoin:round"
         d="m 102.61787,-50.870858 v -44.327427 l 8.14753,-8.147535 h 163.38992 v 44.327425 l -8.14752,8.147537 z" /></clipPath><clipPath
       clipPathUnits="userSpaceOnUse"
       id="clipPath4359"><rect
         style="fill:#000000;fill-opacity:0.25;stroke:none;stroke-width:2.6516;stroke-linejoin:round;stroke-dasharray:none"
         id="rect4361"
         width="406.39999"
         height="66.145836"
         x="50.800003"
         y="19.253092" /></clipPath><clipPath
       clipPathUnits="userSpaceOnUse"
       id="clipPath6049"><path
         id="path6051"
         style="fill:none;stroke:#ffff00;stroke-width:0.463936;stroke-linejoin:round;stroke-dasharray:none"
         d="m 120.79672,102.58525 h 336.4359 v 131.82773 h -336.4359 z" /></clipPath><clipPath
       clipPathUnits="userSpaceOnUse"
       id="clipPath6192"><rect
         style="fill:none;fill-opacity:1;stroke:#ffff00;stroke-width:0.477015;stroke-linejoin:round;stroke-dasharray:none;stroke-opacity:1"
         id="rect6194"
         width="26.458342"
         height="26.458334"
         x="127.17934"
         y="241.25954" /></clipPath><clipPath
       clipPathUnits="userSpaceOnUse"
       id="clipPath6198"><rect
         style="fill:none;fill-opacity:1;stroke:#ffff00;stroke-width:0.477015;stroke-linejoin:round;stroke-dasharray:none;stroke-opacity:1"
         id="rect6200"
         width="26.458342"
         height="26.458334"
         x="160.25227"
         y="241.25954" /></clipPath><clipPath
       clipPathUnits="userSpaceOnUse"
       id="clipPath6204"><rect
         style="fill:none;fill-opacity:1;stroke:#ffff00;stroke-width:0.477015;stroke-linejoin:round;stroke-dasharray:none;stroke-opacity:1"
         id="rect6206"
         width="26.458342"
         height="26.458334"
         x="193.32518"
         y="241.25954" /></clipPath><clipPath
       clipPathUnits="userSpaceOnUse"
       id="clipPath6210"><rect
         style="fill:none;fill-opacity:1;stroke:#ffff00;stroke-width:0.477015;stroke-linejoin:round;stroke-dasharray:none;stroke-opacity:1"
         id="rect6212"
         width="26.458342"
         height="26.458334"
         x="226.3981"
         y="241.25954" /></clipPath><clipPath
       clipPathUnits="userSpaceOnUse"
       id="clipPath6216"><rect
         style="fill:none;fill-opacity:1;stroke:#ffff00;stroke-width:0.477015;stroke-linejoin:round;stroke-dasharray:none;stroke-opacity:1"
         id="rect6218"
         width="26.458342"
         height="26.458334"
         x="259.47104"
         y="241.25954" /></clipPath><clipPath
       clipPathUnits="userSpaceOnUse"
       id="clipPath6222"><rect
         style="fill:none;fill-opacity:1;stroke:#ffff00;stroke-width:0.477015;stroke-linejoin:round;stroke-dasharray:none;stroke-opacity:1"
         id="rect6224"
         width="26.458342"
         height="26.458334"
         x="292.54395"
         y="241.25954" /></clipPath><clipPath
       clipPathUnits="userSpaceOnUse"
       id="clipPath6228"><rect
         style="fill:none;fill-opacity:1;stroke:#ffff00;stroke-width:0.477015;stroke-linejoin:round;stroke-dasharray:none;stroke-opacity:1"
         id="rect6230"
         width="26.458342"
         height="26.458334"
         x="325.61688"
         y="241.25954" /></clipPath><clipPath
       clipPathUnits="userSpaceOnUse"
       id="clipPath6234"><rect
         style="fill:none;fill-opacity:1;stroke:#ffff00;stroke-width:0.477015;stroke-linejoin:round;stroke-dasharray:none;stroke-opacity:1"
         id="rect6236"
         width="26.458342"
         height="26.458334"
         x="358.68979"
         y="241.25954" /></clipPath><clipPath
       clipPathUnits="userSpaceOnUse"
       id="clipPath6240"><rect
         style="fill:none;fill-opacity:1;stroke:#ffff00;stroke-width:0.477015;stroke-linejoin:round;stroke-dasharray:none;stroke-opacity:1"
         id="rect6242"
         width="26.458342"
         height="26.458334"
         x="391.76273"
         y="241.25954" /></clipPath><clipPath
       clipPathUnits="userSpaceOnUse"
       id="clipPath6246"><rect
         style="fill:none;fill-opacity:1;stroke:#ffff00;stroke-width:0.477015;stroke-linejoin:round;stroke-dasharray:none;stroke-opacity:1"
         id="rect6248"
         width="26.458342"
         height="26.458334"
         x="424.83563"
         y="241.25954" /></clipPath><clipPath
       clipPathUnits="userSpaceOnUse"
       id="clipPath189"><g
         id="g211"><path
           style="color:#000000;-inkscape-font-specification:Stencil;fill:#ffff00;-inkscape-stroke:none"
           d="m 541.94964,-93.437034 -15.67055,1.792386 1.50678,-3.520752 q 4.11855,-1.442116 5.96017,-2.925154 1.57375,-1.284979 2.54479,-2.835866 0.97104,-1.55088 2.04253,-4.55307 0.40181,-1.11744 0.77013,-1.5279 0.40181,-0.44777 1.07149,-0.52436 0.87059,-0.0996 1.30588,0.45334 0.46878,0.5491 0.46878,1.68756 z"
           id="path189" /><path
           style="color:#000000;-inkscape-font-specification:Stencil;fill:#ffff00;-inkscape-stroke:none"
           d="m 509.93886,-135.48144 14.53209,-1.66217 -1.6742,4.00868 q -2.84615,0.69387 -5.22352,2.67348 -3.01357,2.48767 -4.11854,6.56518 -0.26788,1.06864 -0.66969,1.51641 -0.4018,0.44777 -1.13845,0.53202 -1.70769,0.19533 -1.70769,-1.78023 z"
           id="path190" /><path
           style="color:#000000;-inkscape-font-specification:Stencil;fill:#ffff00;-inkscape-stroke:none"
           d="m 541.94964,-139.14281 v 3.85067 l -18.5167,43.973033 -14.63254,1.673659 v -3.314924 l 18.58366,-44.516438 z"
           id="path191" /><path
           style="color:#000000;-inkscape-font-specification:Stencil;fill:#ffff00;-inkscape-stroke:none"
           d="m 490.78597,-109.98582 q 3.08053,0.11643 4.72125,0.49799 1.6742,0.37774 3.01357,1.19558 1.40633,0.87715 2.14298,2.23271 0.77013,1.35173 0.77013,2.95896 v 6.931209 q 0,1.071491 0.70317,0.991063 0.26787,-0.03064 0.43529,-0.183725 0.20091,-0.1904 0.53575,-0.663992 0.8371,-1.234205 1.70769,-1.333783 0.56923,-0.06511 1.13845,0.472498 0.56923,0.537606 0.56923,1.140319 0,1.038007 -1.00452,2.659687 -0.97104,1.584366 -2.44434,2.924824 -1.37284,1.262 -2.98008,1.914611 -1.60724,0.686096 -3.7837,0.935038 -4.4199,0.505545 -6.89772,-1.722349 -2.47782,-2.261379 -2.47782,-6.78173 v -5.62533 q 0,-1.8751 -0.0335,-2.17263 -0.16742,-1.32021 -0.93755,-2.20316 -0.97104,-1.06088 -2.77918,-1.05497 v -3.5828 q 1.80814,-0.47469 2.57827,-1.23245 0.66968,-0.67931 0.90407,-1.47626 0.26788,-0.80077 0.26788,-2.30756 v -8.87328 q 0,-2.10949 -0.83711,-3.05175 -0.80361,-0.94609 -2.9466,-1.30369 v -3.71674 l 0.87059,-0.0996 q 3.71673,-0.42512 6.32849,-0.45598 3.88416,-0.0759 6.93121,1.752 4.38641,2.61231 4.38641,8.37157 0,4.72126 -2.9466,8.07185 -1.23891,1.4141 -2.91311,2.40922 -1.64072,0.99128 -5.02261,2.38262 z"
           id="path192" /><path
           style="color:#000000;-inkscape-font-specification:Stencil;fill:#ffff00;-inkscape-stroke:none"
           d="m 480.50635,-132.11497 v 39.3438 q 0,1.30588 0.50226,1.817661 0.26788,0.304201 0.50226,0.377845 0.23439,0.04016 1.54027,0.225634 1.60724,0.18449 1.60724,1.65779 0,0.870586 -0.87059,1.505908 -0.6362,0.474577 -2.1095,0.643092 l -1.13845,0.130215 -14.93391,1.70813 -0.87058,0.09958 q -1.20543,0.137876 -1.87511,-0.22082 -0.6362,-0.396008 -0.6362,-1.23311 0,-1.372848 1.33937,-1.961338 1.10497,-0.49471 1.27239,-0.580828 0.20091,-0.123432 0.40181,-0.447767 0.40181,-0.581704 0.40181,-1.753647 V -124.3204 q 0,-1.17194 -0.40181,-1.66172 -0.2009,-0.27838 -0.40181,-0.32237 -0.16742,-0.0813 -1.27239,-0.32324 -1.33937,-0.2821 -1.33937,-1.65495 0,-0.8371 0.6362,-1.34516 0.66968,-0.54538 1.87511,-0.68325 l 0.87058,-0.0996 z"
           id="path193" /><path
           style="color:#000000;-inkscape-font-specification:Stencil;fill:#ffff00;-inkscape-stroke:none"
           d="m 443.27204,-82.15036 v -3.616281 q 2.17647,-0.583784 3.5828,-1.347352 1.43981,-0.767399 2.87963,-2.170995 1.43981,-1.403596 2.27692,-2.805223 0.87058,-1.438939 1.64072,-3.703493 0.36832,-1.113618 0.77013,-1.527902 0.40181,-0.447768 1.10497,-0.528195 0.93756,-0.107237 1.30588,0.419864 0.36833,0.493616 0.36833,1.866463 v 11.819881 z"
           id="path194" /><path
           style="color:#000000;-inkscape-font-specification:Stencil;fill:#ffff00;-inkscape-stroke:none"
           d="m 443.07114,-103.45674 v -3.88416 q 1.94207,-1.15968 2.87963,-2.37189 0.93755,-1.21222 1.37284,-3.10363 0.26788,-1.30303 0.70317,-1.8216 0.43529,-0.55205 1.23891,-0.64397 1.07149,-0.12255 1.4733,0.66859 0.23439,0.40849 0.23439,1.94875 v 12.757438 q 0,1.573752 -0.36833,2.218595 -0.33484,0.641012 -1.27239,0.748249 -0.77013,0.08809 -1.20543,-0.330901 -0.43529,-0.418989 -0.70316,-1.493325 -0.56923,-2.245296 -1.64072,-3.361646 -1.03801,-1.12019 -2.71221,-1.3305 z"
           id="path195" /><path
           style="color:#000000;-inkscape-font-specification:Stencil;fill:#ffff00;-inkscape-stroke:none"
           d="m 443.23856,-127.8523 13.49408,-1.54345 v 11.85337 q 0,1.03801 -0.40181,1.55274 -0.40181,0.51474 -1.27239,0.61431 -0.73665,0.0843 -1.07149,-0.1788 -0.33484,-0.26306 -0.6362,-1.16614 -1.2724,-3.73862 -3.75022,-5.49774 -2.44434,-1.76294 -6.36197,-1.71666 z"
           id="path196" /><path
           style="color:#000000;-inkscape-font-specification:Stencil;fill:#ffff00;-inkscape-stroke:none"
           d="m 440.25847,-127.51144 v 45.70577 l -14.90041,1.704298 -0.87059,0.09958 q -1.20543,0.137876 -1.87511,-0.220819 -0.6362,-0.396009 -0.6362,-1.233111 0,-1.372848 1.33937,-1.961338 1.10497,-0.49471 1.27239,-0.580828 0.20091,-0.123432 0.40181,-0.447767 0.40181,-0.581704 0.40181,-1.753647 v -33.517568 q 0,-1.17194 -0.40181,-1.66173 -0.2009,-0.27838 -0.40181,-0.32237 -0.16742,-0.0813 -1.27239,-0.32324 -1.33937,-0.2821 -1.33937,-1.65494 0,-0.8371 0.6362,-1.34517 0.66968,-0.54537 1.87511,-0.68325 l 0.87059,-0.0996 z"
           id="path197" /><path
           style="color:#000000;-inkscape-font-specification:Stencil;fill:#ffff00;-inkscape-stroke:none"
           d="m 379.88667,-120.60616 8.80632,-1.00726 v 4.05157 q -1.57376,1.08408 -2.44434,2.58999 -1.43982,2.4416 -1.94208,5.61307 l -0.33484,2.08083 q -0.16742,0.99018 -0.73665,1.62452 -0.53575,0.59703 -1.37285,0.69277 -0.87058,0.0996 -1.43981,-0.43803 -0.53575,-0.54143 -0.53575,-1.51247 z"
           id="path198" /><path
           style="color:#000000;-inkscape-font-specification:Stencil;fill:#ffff00;-inkscape-stroke:none"
           d="m 417.85762,-124.94925 v 13.69499 q 0,0.97104 -0.56923,1.63886 -0.53574,0.66399 -1.40633,0.76357 -0.8371,0.0958 -1.40633,-0.37489 -0.53575,-0.50795 -0.70317,-1.45984 l -0.33484,-2.00423 q -0.50226,-3.05657 -1.94207,-5.16881 -0.90407,-1.30292 -2.44434,-2.03082 v -4.05157 z"
           id="path199" /><path
           style="color:#000000;-inkscape-font-specification:Stencil;fill:#ffff00;-inkscape-stroke:none"
           d="m 406.27213,-123.62411 v 39.343798 q 0,1.30588 0.50226,1.81766 0.26787,0.304203 0.50226,0.377845 0.23439,0.04016 1.54027,0.225634 1.60724,0.18449 1.60724,1.65779 0,0.870586 -0.87059,1.505909 -0.6362,0.474577 -2.14298,0.646921 l -1.10498,0.126387 -14.9339,1.708129 -1.10497,0.126386 q -1.4733,0.168515 -2.24344,-0.17869 -0.73665,-0.38452 -0.73665,-1.28859 0,-1.4733 1.60724,-2.02546 1.30588,-0.484206 1.54027,-0.577984 0.23439,-0.127261 0.46878,-0.488911 0.50226,-0.626678 0.50226,-1.932558 v -39.343796 z"
           id="path200" /><path
           style="color:#000000;-inkscape-font-specification:Stencil;fill:#ffff00;-inkscape-stroke:none"
           d="m 365.72291,-73.280345 v -3.750217 q 1.64072,-0.489022 2.57828,-0.964584 0.97103,-0.479391 1.84162,-1.282133 1.40633,-1.26583 2.57827,-3.341953 1.17195,-2.076124 1.9086,-4.537751 0.53574,-1.902902 0.97104,-2.521921 0.46877,-0.656331 1.33936,-0.755908 0.93755,-0.107237 1.37285,0.613108 0.2009,0.345346 0.2009,1.450321 v 13.628021 z"
           id="path201" /><path
           style="color:#000000;-inkscape-font-specification:Stencil;fill:#ffff00;-inkscape-stroke:none"
           d="m 363.0107,-72.970125 -14.90042,1.7043 -0.87058,0.09958 q -1.20543,0.137876 -1.87511,-0.220819 -0.6362,-0.396009 -0.6362,-1.233111 0,-1.372848 1.33936,-1.961336 1.10498,-0.494712 1.2724,-0.580829 0.2009,-0.123431 0.40181,-0.447768 0.40181,-0.581704 0.40181,-1.753647 v -33.517575 q 0,-1.17194 -0.40181,-1.66172 -0.20091,-0.27838 -0.40181,-0.32237 -0.16742,-0.0813 -1.2724,-0.32324 -1.33936,-0.2821 -1.33936,-1.65495 0,-0.8371 0.6362,-1.34516 0.66968,-0.54538 1.87511,-0.68325 l 0.87058,-0.0996 14.9339,-1.70813 1.13846,-0.13021 q 1.4733,-0.16852 2.1095,0.16052 0.87059,0.43617 0.87059,1.30676 0,1.4733 -1.60724,2.02546 -1.30588,0.45072 -1.54027,0.57798 -0.23439,0.12726 -0.50226,0.45926 -0.50226,0.66016 -0.50226,1.93255 z"
           id="path202" /><path
           style="color:#000000;-inkscape-font-specification:Stencil;fill:#ffff00;-inkscape-stroke:none"
           d="m 325.7764,-68.711292 v -3.616281 q 2.17647,-0.583784 3.5828,-1.347352 1.43982,-0.767399 2.87963,-2.170995 1.43982,-1.403596 2.27692,-2.805222 0.87059,-1.438941 1.64072,-3.703494 0.36832,-1.113618 0.77013,-1.527902 0.40181,-0.447767 1.10498,-0.528196 0.93755,-0.107236 1.30588,0.419864 0.36832,0.493618 0.36832,1.866465 v 11.819881 z"
           id="path203" /><path
           style="color:#000000;-inkscape-font-specification:Stencil;fill:#ffff00;-inkscape-stroke:none"
           d="m 325.5755,-90.017674 v -3.884153 q 1.94208,-1.159688 2.87963,-2.371899 0.93756,-1.212212 1.37285,-3.103625 0.26787,-1.303039 0.70316,-1.821599 0.4353,-0.55205 1.23891,-0.64397 1.0715,-0.12255 1.4733,0.66859 0.23439,0.40848 0.23439,1.948751 v 12.757435 q 0,1.573752 -0.36832,2.218595 -0.33484,0.641011 -1.2724,0.748249 -0.77013,0.08809 -1.20542,-0.330902 -0.4353,-0.418988 -0.70317,-1.493324 -0.56923,-2.245293 -1.64072,-3.361648 -1.03801,-1.120185 -2.71221,-1.3305 z"
           id="path204" /><path
           style="color:#000000;-inkscape-font-specification:Stencil;fill:#ffff00;-inkscape-stroke:none"
           d="m 325.74292,-114.41324 13.49409,-1.54344 v 11.85337 q 0,1.038 -0.40181,1.55274 -0.40181,0.51473 -1.2724,0.61431 -0.73665,0.0843 -1.07149,-0.1788 -0.33484,-0.26306 -0.6362,-1.16614 -1.27239,-3.73862 -3.75021,-5.49774 -2.44434,-1.76295 -6.36198,-1.71666 z"
           id="path205" /><path
           style="color:#000000;-inkscape-font-specification:Stencil;fill:#ffff00;-inkscape-stroke:none"
           d="m 322.76284,-114.07238 v 45.705777 l -14.90042,1.7043 -0.87059,0.09958 q -1.20542,0.137875 -1.8751,-0.22082 -0.6362,-0.396009 -0.6362,-1.233111 0,-1.372848 1.33936,-1.961336 1.10498,-0.494712 1.2724,-0.580829 0.2009,-0.123431 0.4018,-0.447767 0.40181,-0.581704 0.40181,-1.753647 V -106.2778 q 0,-1.17195 -0.40181,-1.66173 -0.2009,-0.27838 -0.4018,-0.32237 -0.16742,-0.0813 -1.2724,-0.32324 -1.33936,-0.2821 -1.33936,-1.65495 0,-0.8371 0.6362,-1.34516 0.66968,-0.54537 1.8751,-0.68325 l 0.87059,-0.0996 z"
           id="path206" /><path
           style="color:#000000;-inkscape-font-specification:Stencil;fill:#ffff00;-inkscape-stroke:none"
           d="m 271.73309,-62.529856 -14.9339,1.708129 -0.87059,0.09958 q -1.20542,0.137875 -1.8751,-0.22082 -0.6362,-0.396009 -0.6362,-1.233111 0,-1.372848 1.33936,-1.961336 1.10498,-0.494712 1.2724,-0.580829 0.2009,-0.123431 0.40181,-0.447768 0.4018,-0.581703 0.4018,-1.753646 v -33.517573 q 0,-1.17194 -0.4018,-1.66173 -0.20091,-0.27837 -0.40181,-0.32236 -0.16742,-0.0813 -1.2724,-0.32324 -1.33936,-0.2821 -1.33936,-1.65495 0,-0.8371 0.6362,-1.34516 0.66968,-0.54538 1.8751,-0.68325 l 0.87059,-0.0996 14.9339,-1.70813 0.87059,-0.0996 q 2.37737,-0.27192 2.37737,1.46925 0,1.40634 -1.2724,1.95368 l -1.038,0.45357 q -0.97104,0.44591 -0.97104,2.32101 v 33.517573 q 0,1.875109 0.97104,2.098884 l 1.038,0.216114 q 1.2724,0.256273 1.2724,1.662605 0,1.741172 -2.37737,2.013093 z"
           id="path207" /><path
           style="color:#000000;-inkscape-font-specification:Stencil;fill:#ffff00;-inkscape-stroke:none"
           d="m 274.54575,-87.864176 5.45791,-0.624272 v -14.599062 q 0,-1.87511 -0.97104,-2.09888 l -1.07149,-0.21228 q -1.27239,-0.25628 -1.27239,-1.66261 0,-1.74117 2.41085,-2.01692 l 0.87059,-0.0996 14.90041,-1.7043 0.90407,-0.10341 q 2.51131,-0.28724 2.51131,1.45393 0,1.37285 -1.33936,1.96134 -1.10498,0.49471 -1.30588,0.61814 -0.16742,0.0861 -0.36833,0.41046 -0.40181,0.5817 -0.40181,1.75364 v 33.383634 q 0,1.841624 1.00452,2.128537 l 1.0715,0.245767 q 1.33936,0.282098 1.33936,1.68843 0,1.774656 -2.51131,2.061898 l -0.90407,0.103407 -14.90041,1.704298 -0.93756,0.107238 q -2.34388,0.268091 -2.34388,-1.506565 0,-1.406332 1.27239,-1.98716 l 1.07149,-0.490881 q 0.97104,-0.412423 0.97104,-2.3545 v -15.469646 l -5.45791,0.624272 z"
           id="path208" /><path
           style="color:#000000;-inkscape-font-specification:Stencil;fill:#ffff00;-inkscape-stroke:none"
           d="m 228.00288,-60.44114 v 3.817185 q -2.7457,0.314051 -6.06062,-0.880542 -1.23891,-0.427524 -1.70769,-0.541326 -0.46877,-0.113803 -0.90407,-0.06401 -0.66968,0.0766 -1.00452,0.349286 -0.33484,0.239202 -1.07149,1.194046 -0.60271,0.805587 -1.30588,0.886015 -1.87511,0.214474 -1.87511,-2.665157 v -12.188206 q 0,-0.937554 0.53575,-1.635031 0.53574,-0.730958 1.33936,-0.856361 0.73665,-0.117737 1.13846,0.305078 0.43529,0.385505 0.73665,1.489494 0.77013,2.791545 2.20995,5.138165 1.4733,2.342791 3.41537,3.861831 1.97557,1.582176 4.55384,1.789537 z"
           id="path209" /><path
           style="color:#000000;-inkscape-font-specification:Stencil;fill:#ffff00;-inkscape-stroke:none"
           d="m 232.38929,-100.78891 v -3.68325 q 2.00905,-0.0959 3.48235,0.13743 1.4733,0.19981 4.18551,1.02805 0.66968,0.19128 1.10497,0.14149 0.6362,-0.0728 0.93756,-0.54253 l 0.73665,-1.0553 q 0.53574,-0.79792 1.30588,-0.88601 0.90407,-0.10341 1.30588,0.52031 0.43529,0.58641 0.43529,1.99274 v 11.049752 q 0,0.971038 -0.56923,1.672344 -0.53575,0.663991 -1.40633,0.763568 -0.66968,0.0766 -1.23891,-0.293588 -0.30136,-0.233402 -0.50226,-0.578748 -0.16742,-0.38266 -0.33484,-1.267582 -0.36833,-1.59859 -1.2724,-3.236356 -0.90407,-1.637765 -2.1095,-2.872736 -2.41085,-2.436464 -6.06062,-2.889584 z"
           id="path210" /><path
           style="color:#000000;-inkscape-font-specification:Stencil;fill:#ffff00;-inkscape-stroke:none"
           d="m 229.74405,-104.33702 v 3.85067 q -2.07601,0.806679 -3.18099,2.138493 -1.07149,1.294499 -1.07149,3.035671 0,1.674204 0.90407,2.843192 0.90407,1.135505 2.9466,2.04034 1.40633,0.609279 6.36198,2.218922 3.01357,0.961189 4.65429,1.845014 1.6742,0.846513 3.1475,2.25175 3.95112,3.7001 3.95112,9.425878 0,4.319447 -2.14298,8.147357 -2.14298,3.827909 -5.8932,6.299386 -2.00904,1.301282 -4.4199,2.179749 -2.37737,0.908119 -4.45338,1.145571 v -3.817185 q 2.91311,-1.036365 4.18551,-2.420812 1.30588,-1.421761 1.30588,-3.564742 0,-2.243434 -2.00905,-3.721328 -1.33936,-0.95178 -5.08958,-2.163553 -4.11854,-1.337064 -5.65881,-1.931023 -1.50678,-0.59779 -2.91311,-1.474942 -6.29501,-3.766848 -6.29501,-11.233798 0,-3.817186 1.57375,-7.211661 1.57375,-3.427962 4.38642,-5.725229 3.91764,-3.1938 9.71038,-4.15772 z"
           id="path211" /></g></clipPath><clipPath
       clipPathUnits="userSpaceOnUse"
       id="clipPath281"><g
         id="g283"
         transform="translate(-870.99033,425.93552)"><path
           style="color:#000000;-inkscape-font-specification:Stencil;fill:#ffff00;-inkscape-stroke:none"
           d="m 1098.9932,-486.37666 v 3.81718 q -2.7457,0.31406 -6.0606,-0.88054 -1.2389,-0.42752 -1.7077,-0.54132 -0.4688,-0.11381 -0.9041,-0.064 -0.6696,0.0766 -1.0045,0.34928 -0.3348,0.23921 -1.0715,1.19405 -0.6027,0.80559 -1.3059,0.88601 -1.8751,0.21448 -1.8751,-2.66515 v -12.18821 q 0,-0.93755 0.5358,-1.63503 0.5357,-0.73096 1.3393,-0.85636 0.7367,-0.11774 1.1385,0.30508 0.4353,0.3855 0.7367,1.48949 0.7701,2.79155 2.2099,5.13817 1.4733,2.34279 3.4154,3.86183 1.9755,1.58217 4.5538,1.78953 z"
           id="path281" /><path
           style="color:#000000;-inkscape-font-specification:Stencil;fill:#ffff00;-inkscape-stroke:none"
           d="m 1103.3796,-526.72443 v -3.68325 q 2.0091,-0.0959 3.4824,0.13743 1.4733,0.19981 4.1855,1.02805 0.6697,0.19128 1.105,0.14149 0.6362,-0.0728 0.9375,-0.54253 l 0.7367,-1.0553 q 0.5357,-0.79792 1.3058,-0.88601 0.9041,-0.10341 1.3059,0.52031 0.4353,0.58641 0.4353,1.99274 v 11.04975 q 0,0.97104 -0.5692,1.67235 -0.5358,0.66399 -1.4063,0.76356 -0.6697,0.0766 -1.239,-0.29358 -0.3013,-0.23341 -0.5022,-0.57875 -0.1674,-0.38266 -0.3349,-1.26758 -0.3683,-1.59859 -1.2724,-3.23636 -0.904,-1.63776 -2.1095,-2.87274 -2.4108,-2.43646 -6.0606,-2.88958 z"
           id="path282" /><path
           style="color:#000000;-inkscape-font-specification:Stencil;fill:#ffff00;-inkscape-stroke:none"
           d="m 1100.7344,-530.27254 v 3.85067 q -2.076,0.80668 -3.181,2.13849 -1.0715,1.2945 -1.0715,3.03567 0,1.67421 0.9041,2.8432 0.904,1.1355 2.9466,2.04034 1.4063,0.60927 6.362,2.21892 3.0135,0.96119 4.6542,1.84501 1.6742,0.84652 3.1475,2.25175 3.9512,3.7001 3.9512,9.42588 0,4.31945 -2.143,8.14736 -2.143,3.82791 -5.8932,6.29938 -2.0091,1.30128 -4.4199,2.17975 -2.3774,0.90812 -4.4534,1.14557 v -3.81718 q 2.9131,-1.03637 4.1855,-2.42081 1.3059,-1.42177 1.3059,-3.56475 0,-2.24343 -2.0091,-3.72132 -1.3393,-0.95178 -5.0895,-2.16356 -4.1186,-1.33706 -5.6589,-1.93102 -1.5067,-0.59779 -2.9131,-1.47494 -6.295,-3.76685 -6.295,-11.2338 0,-3.81719 1.5738,-7.21166 1.5737,-3.42796 4.3864,-5.72523 3.9176,-3.1938 9.7104,-4.15772 z"
           id="path283" /></g></clipPath></defs><g
     id="layer1"><g
       id="g1319" /><g
       id="g72"
       transform="matrix(0.09689695,0,0,0.09689695,-148.14931,-106.71624)"><rect
         style="fill:#ffffff;stroke:none;stroke-width:0.264583;stroke-linecap:round;stroke-linejoin:round;stroke-dasharray:none"
         id="rect54"
         width="273.056"
         height="273.056"
         x="1528.937"
         y="1101.3376" /><path
         style="fill:#000000;stroke:none;stroke-width:0.264583;stroke-dasharray:none"
         d="m 1528.9368,1374.3935 c 1.1819,-2.9103 8.3247,-29.5596 35.9771,-38.1618 0.942,-4.9012 1.5185,-6.9366 4.8195,-9.4507 4.2287,-0.9051 7.5134,-1.3338 10.7743,-2.3608 l 27.8807,-9.7876 c 1.194,-2.1361 2.8567,-3.1007 4.4756,-4.1748 -3.2542,-2.6403 -5.2944,-4.7546 -6.9114,-11.199 -0.3495,0.8778 -1.1109,1.3743 -0.6506,2.709 -0.3652,0.2943 -1.013,0.8651 -1.2729,0.4529 -0.1268,-1.8953 0.2427,-4.8158 2.3288,-6.5181 -0.4992,-6.0154 1.0308,-8.5753 1.8907,-12.878 -4.2803,3.9499 -7.0294,4.1071 -9.6951,4.1888 5.1128,-2.5656 8.7083,-5.4076 11.1034,-10.7561 -4.0017,3.0134 -4.8196,3.447 -8.7871,4.0348 0.533,-0.5046 0.9196,-0.8541 1.3247,-1.4008 -1.0833,0.4822 -2.1513,0.8513 -3.7047,1.0589 1.106,-0.4813 2.3848,-0.9155 2.7463,-1.5999 -0.4324,0.1197 -0.5322,0 -1.5156,0.127 2.1886,-1.588 3.8119,-1.8016 4.5784,-2.8161 1.4613,-2.8005 8.2613,-12.6842 6.3364,-22.0615 -0.1769,2.4617 -1.3389,4.0392 -1.9738,7.1714 -0.455,-4.0824 0.3441,-4.7565 -0.097,-7.5791 -0.049,-1.5397 -0.5972,-2.4016 -0.93,-4.8581 -2.895,2.7871 -5.3799,3.8139 -7.0204,3.5501 2.036,-1.1715 5.3279,-4.2477 6.107,-5.8262 -0.5081,-1.3859 -1.0339,-2.7247 -1.3095,-4.7305 -0.1438,-4.6282 -0.1114,-9.1155 0.8562,-14.0446 -1.5293,2.8563 -1.9335,5.4042 -2.5103,7.8226 -0.1929,-1.5447 0.1277,-5.0264 1.1759,-9.3626 0.5601,-2.162 0.5349,-4.2708 2.4185,-8.7089 1.4103,-15.7535 -3.2305,-6.3597 0.7236,-26.2736 5.7754,-17.9647 12.907,-23.5005 30.2416,-33.3566 13.1206,-7.4599 28.5381,-7.1405 35.9315,-2.7831 1.169,0.689 9.0605,-1.1889 11.0062,-0.9098 7.0277,1.0081 14.1348,4.5901 19.9727,12.2618 1.2136,1.5948 -7.6956,-4.332 -5.4974,-2.8842 9.4805,8.5283 20.33,17.3698 22.9404,38.0684 -1.6223,-4.3097 -1.5807,-4.0685 -2.7408,-5.8524 2.1723,5.6572 0.2777,5.2102 2.1847,8.6399 3.1187,5.6092 8.5016,13.1209 6.0521,22.2111 0.011,-2.386 -0.4594,-2.9726 -0.8598,-4.9857 -0.891,7.9766 2.7461,7.7616 0.3997,14.1482 7.8075,20.9759 1.4402,29.4656 1.135,30.1118 0.93,0.9286 2.6447,5.1307 2.646,6.1292 -1.5217,-1.6496 -2.5733,-2.8326 -3.5455,-4.5148 -0.7967,1.0347 -1.7371,2.5624 -2.9959,4.0143 2.6674,4.712 0.757,9.6102 0.6709,10.7731 1.0694,1.822 3.3559,4.424 5.8275,5.2919 -2.0663,1.3532 -5.1655,0.9227 -7.7961,-0.029 0.033,5.3925 1.0527,9.8948 6.7359,11.1137 0.3512,0.071 1.2192,-0.4739 1.809,-0.7207 -0.2232,1.8302 -4.5365,2.8624 -5.7357,3.1633 -0.081,0.746 2.3237,0.9839 4.9612,0.4949 0.1997,1.8722 -7.1205,2.154 -7.9259,1.7359 0.5826,2.3398 1.3171,4.7196 -1.0107,8.2528 1.6275,2.1951 3.7324,2.6656 5.2482,4.1118 5.2246,0.9051 6.3951,0.049 1.802,2.5797 9.7532,3.7698 20.0996,6.9932 30.9345,8.7968 4.0371,2.5818 4.1806,5.8845 4.8281,9.094 17.4793,5.2117 29.5229,19.1155 36.6983,38.4771 h -131.0374 c 3.767,-6.2641 10.662,-14.2688 16.7439,-20.5437 -3.1406,0.5661 3.6958,-9.715 8.5603,-17.2328 -0.8528,-2.0354 1.7084,-7.5351 4.7521,-12.1036 -1.0393,-3.0475 -1.5989,-3.5101 -2.6335,-8.9887 -0.3586,2.7485 -0.9646,4.8942 -1.7008,7.7846 -0.01,-7.7802 0.3958,-10.6741 0.634,-16.427 -0.7513,3.1251 -2.5858,8.4443 -4.3837,7.7013 2.5124,-0.2432 3.8153,-19.9044 3.87,-24.6105 -0.3592,7.0525 -14.4779,21.3073 -24.1962,27.1041 2.4401,0.5281 7.7472,-2.5033 11.5317,-3.7903 -1.9084,1.7814 -17.0118,11.2313 -20.4439,11.7989 3.3426,1.9695 3.2702,3.258 6.1889,3.123 -1.3864,0.5491 -2.7326,0.6334 -4.7049,0.2916 0.6395,1.0243 1.1858,0.4622 4.1993,2.028 -8.1031,-0.3311 -9.5346,2.1136 -18.5547,-4.2775 2.1698,8.2382 2.3587,5.0984 3.7995,10.8119 -8.4269,-2.1962 -10.5588,-6.3073 -11.6122,-7.6616 0.8103,4.1771 -0.108,4.8698 -5.0086,7.6318 7.6923,6.5204 19.2863,26.0037 21.8566,37.3604 z m 157.2215,-78.4238 c -1.0172,1.7766 -1.8148,2.0141 -2.6598,4.583 3.6362,-4.1563 9.1633,-7.185 12.415,-15.9808 -1.3805,1.8085 -1.1384,1.881 -2.6221,2.7793 8.0435,-10.3206 9.2453,-31.8506 9.3888,-32.8511 -3.649,10.681 -8.0224,19.34 -14.1091,23.2156 4.7897,-6.6608 9.106,-13.1381 8.9773,-17.8919 -2.0468,3.1181 -4.7809,7.8873 -12.3907,8.9219 1.6708,-1.2124 5.0935,-2.5535 8.0606,-8.4724 -4.07,3.6308 -7.6313,3.6487 -8.0012,3.2191 6.7076,-2.1254 15.0639,-11.21 6.3292,-22.5158 -0.3731,-1.6939 0.1588,-2.7087 0.975,-3.1998 0.093,-6.5363 -3.5823,-9.7027 -6.4023,-14.9755 -5.2019,-7.4813 -12.8403,-31.2663 -13.5291,-31.9297 -7.6619,2.0697 -9.7442,13.0877 -13.1268,18.3274 -4.9608,9.2243 -10.3128,17.5409 -14.1732,21.1149 -0.4396,0.6339 -1.8794,1.8675 -3.4651,3.6486 -3.5361,2.3612 -6.5558,4.5189 -6.48,6.3776 0.2488,2.1931 2.1227,5.7986 10.0584,4.5411 -5.2989,2.6928 -7.9619,2.0749 -11.7245,1.417 1.7,5.3017 6.8925,5.7781 11.3658,5.459 -6.4816,2.9065 -9.2401,2.2106 -13.7549,-3.1283 -3.1632,1.0169 -1.6866,9.6444 1.4282,12.574 3.1148,2.9295 10.2701,10.6891 8.7189,19.9769 -0.02,0.2802 0.3066,2.6376 0.8625,4.0838 0.1778,0.4625 0.379,0.8319 0.5997,1.0102 0.3092,-1.2718 0.751,-1.422 1.2945,-1.7926 -0.073,1.2739 -0.3682,2.7987 -0.2169,4.2137 0.7844,1.6223 1.5226,3.6556 2.9432,4.889 1.1799,3.6351 2.8233,10.3947 8.1994,10.0555 0.2705,-0.017 0.8223,3.1429 0.4324,4.9693 -0.3387,0.9487 -1.4788,1.1776 -2.4926,-0.724 -1.4954,-1.1387 0.5161,-2.2986 -0.2065,-3.082 -2.5974,1.4924 -1.5314,3.2615 -5.9675,2.2406 2.8042,1.8778 4.2392,1.1203 5.4727,1.5405 0.2869,0.2106 0.6351,0.683 0.615,1.2046 0.093,0.2438 -0.499,0.03 -0.9484,0.2283 0.026,0.3811 -0.2337,1.6094 2.4378,1.3131 0.3807,0.3784 -0.2203,1.146 -0.1336,1.1419 3.5108,-0.2373 5.0871,-0.8937 5.9497,-2.2271 0.9381,-2.0182 -1.6446,-5.7026 -1.2623,-8.2622 1.0655,2.1905 2.0182,5.8884 2.6555,6.4671 0.7118,-0.8262 0.8858,-2.9243 0.5786,-4.0592 0.6015,0.486 1.2064,1.1838 0.8195,3.6438 0.6522,-0.3465 1.7275,-2.1353 1.308,-4.628 0.3976,0.6997 0.4011,0.5363 0.7458,1.2483 0.1555,-1.6476 -0.6022,-3.9162 -0.8559,-4.7151 1.6508,2.1842 2.0118,4.015 1.7977,4.8537 -0.3199,2.3769 -0.2089,4.5741 -4,6.0338 5.4974,0.2597 8.9853,-4.2048 7.0598,-8.2497 -0.5186,-1.4263 -0.8129,-1.7786 -1.1563,-2.9619 1.0627,0.4853 5.9243,6.4455 -1.9834,12.1983 2.5954,-0.2429 5.1434,-3.6368 5.8638,-6.8987 0.3714,1.5659 0.4489,1.2987 0.025,3.1174 0.7418,-0.4043 1.4609,-1.7312 1.7273,-3.0197 0.6777,1.3216 -0.8083,3.7365 -2.5899,4.8676 4.2777,-0.3915 6.0759,-4.2409 4.6233,-6.3664 1.7364,0.047 2.0277,1.8086 -0.3371,5.4181 3.3509,-2.5458 3.0372,-3.5807 2.2267,-6.1224 8.1736,-7.8925 2.1073,-4.1886 8.6339,-6.8397 z"
         id="path31" /></g></g></svg>
