<?xml version="1.0" encoding="UTF-8" standalone="no"?>
<!-- Created with Inkscape (http://www.inkscape.org/) -->

<svg
   width="100"
   height="100"
   viewBox="0 0 26.458333 26.458333"
   version="1.1"
   id="svg5"
   xml:space="preserve"
   xmlns="http://www.w3.org/2000/svg"
   xmlns:svg="http://www.w3.org/2000/svg"><defs
     id="defs2"><clipPath
       clipPathUnits="userSpaceOnUse"
       id="clipPath759"><path
         id="path761"
         style="stroke-width:10.5264;stroke-linejoin:round"
         d="m 339.83578,-43.224762 h 135.0668 l 7.4666,7.466605 v 22.566791 l -7.4666,7.4666042 h -135.0668 l -7.46662,-7.4666042 v -22.566791 z" /></clipPath><clipPath
       clipPathUnits="userSpaceOnUse"
       id="clipPath759-2"><path
         id="path761-9"
         style="stroke-width:10.5264;stroke-linejoin:round"
         d="m 339.83578,-43.224762 h 135.0668 l 7.4666,7.466605 v 22.566791 l -7.4666,7.4666042 h -135.0668 l -7.46662,-7.4666042 v -22.566791 z" /></clipPath><clipPath
       clipPathUnits="userSpaceOnUse"
       id="clipPath4190"><path
         id="path4192"
         style="fill:none;stroke:#ffff00;stroke-width:0.441703;stroke-linejoin:round"
         d="m 102.61787,-50.870858 v -44.327427 l 8.14753,-8.147535 h 163.38992 v 44.327425 l -8.14752,8.147537 z" /></clipPath><clipPath
       clipPathUnits="userSpaceOnUse"
       id="clipPath4359"><rect
         style="fill:#000000;fill-opacity:0.25;stroke:none;stroke-width:2.6516;stroke-linejoin:round;stroke-dasharray:none"
         id="rect4361"
         width="406.39999"
         height="66.145836"
         x="50.800003"
         y="19.253092" /></clipPath><clipPath
       clipPathUnits="userSpaceOnUse"
       id="clipPath6049"><path
         id="path6051"
         style="fill:none;stroke:#ffff00;stroke-width:0.463936;stroke-linejoin:round;stroke-dasharray:none"
         d="m 120.79672,102.58525 h 336.4359 v 131.82773 h -336.4359 z" /></clipPath><clipPath
       clipPathUnits="userSpaceOnUse"
       id="clipPath6192"><rect
         style="fill:none;fill-opacity:1;stroke:#ffff00;stroke-width:0.477015;stroke-linejoin:round;stroke-dasharray:none;stroke-opacity:1"
         id="rect6194"
         width="26.458342"
         height="26.458334"
         x="127.17934"
         y="241.25954" /></clipPath><clipPath
       clipPathUnits="userSpaceOnUse"
       id="clipPath6198"><rect
         style="fill:none;fill-opacity:1;stroke:#ffff00;stroke-width:0.477015;stroke-linejoin:round;stroke-dasharray:none;stroke-opacity:1"
         id="rect6200"
         width="26.458342"
         height="26.458334"
         x="160.25227"
         y="241.25954" /></clipPath><clipPath
       clipPathUnits="userSpaceOnUse"
       id="clipPath6204"><rect
         style="fill:none;fill-opacity:1;stroke:#ffff00;stroke-width:0.477015;stroke-linejoin:round;stroke-dasharray:none;stroke-opacity:1"
         id="rect6206"
         width="26.458342"
         height="26.458334"
         x="193.32518"
         y="241.25954" /></clipPath><clipPath
       clipPathUnits="userSpaceOnUse"
       id="clipPath6210"><rect
         style="fill:none;fill-opacity:1;stroke:#ffff00;stroke-width:0.477015;stroke-linejoin:round;stroke-dasharray:none;stroke-opacity:1"
         id="rect6212"
         width="26.458342"
         height="26.458334"
         x="226.3981"
         y="241.25954" /></clipPath><clipPath
       clipPathUnits="userSpaceOnUse"
       id="clipPath6216"><rect
         style="fill:none;fill-opacity:1;stroke:#ffff00;stroke-width:0.477015;stroke-linejoin:round;stroke-dasharray:none;stroke-opacity:1"
         id="rect6218"
         width="26.458342"
         height="26.458334"
         x="259.47104"
         y="241.25954" /></clipPath><clipPath
       clipPathUnits="userSpaceOnUse"
       id="clipPath6222"><rect
         style="fill:none;fill-opacity:1;stroke:#ffff00;stroke-width:0.477015;stroke-linejoin:round;stroke-dasharray:none;stroke-opacity:1"
         id="rect6224"
         width="26.458342"
         height="26.458334"
         x="292.54395"
         y="241.25954" /></clipPath><clipPath
       clipPathUnits="userSpaceOnUse"
       id="clipPath6228"><rect
         style="fill:none;fill-opacity:1;stroke:#ffff00;stroke-width:0.477015;stroke-linejoin:round;stroke-dasharray:none;stroke-opacity:1"
         id="rect6230"
         width="26.458342"
         height="26.458334"
         x="325.61688"
         y="241.25954" /></clipPath><clipPath
       clipPathUnits="userSpaceOnUse"
       id="clipPath6234"><rect
         style="fill:none;fill-opacity:1;stroke:#ffff00;stroke-width:0.477015;stroke-linejoin:round;stroke-dasharray:none;stroke-opacity:1"
         id="rect6236"
         width="26.458342"
         height="26.458334"
         x="358.68979"
         y="241.25954" /></clipPath><clipPath
       clipPathUnits="userSpaceOnUse"
       id="clipPath6240"><rect
         style="fill:none;fill-opacity:1;stroke:#ffff00;stroke-width:0.477015;stroke-linejoin:round;stroke-dasharray:none;stroke-opacity:1"
         id="rect6242"
         width="26.458342"
         height="26.458334"
         x="391.76273"
         y="241.25954" /></clipPath><clipPath
       clipPathUnits="userSpaceOnUse"
       id="clipPath6246"><rect
         style="fill:none;fill-opacity:1;stroke:#ffff00;stroke-width:0.477015;stroke-linejoin:round;stroke-dasharray:none;stroke-opacity:1"
         id="rect6248"
         width="26.458342"
         height="26.458334"
         x="424.83563"
         y="241.25954" /></clipPath><clipPath
       clipPathUnits="userSpaceOnUse"
       id="clipPath189"><g
         id="g211"><path
           style="color:#000000;-inkscape-font-specification:Stencil;fill:#ffff00;-inkscape-stroke:none"
           d="m 541.94964,-93.437034 -15.67055,1.792386 1.50678,-3.520752 q 4.11855,-1.442116 5.96017,-2.925154 1.57375,-1.284979 2.54479,-2.835866 0.97104,-1.55088 2.04253,-4.55307 0.40181,-1.11744 0.77013,-1.5279 0.40181,-0.44777 1.07149,-0.52436 0.87059,-0.0996 1.30588,0.45334 0.46878,0.5491 0.46878,1.68756 z"
           id="path189" /><path
           style="color:#000000;-inkscape-font-specification:Stencil;fill:#ffff00;-inkscape-stroke:none"
           d="m 509.93886,-135.48144 14.53209,-1.66217 -1.6742,4.00868 q -2.84615,0.69387 -5.22352,2.67348 -3.01357,2.48767 -4.11854,6.56518 -0.26788,1.06864 -0.66969,1.51641 -0.4018,0.44777 -1.13845,0.53202 -1.70769,0.19533 -1.70769,-1.78023 z"
           id="path190" /><path
           style="color:#000000;-inkscape-font-specification:Stencil;fill:#ffff00;-inkscape-stroke:none"
           d="m 541.94964,-139.14281 v 3.85067 l -18.5167,43.973033 -14.63254,1.673659 v -3.314924 l 18.58366,-44.516438 z"
           id="path191" /><path
           style="color:#000000;-inkscape-font-specification:Stencil;fill:#ffff00;-inkscape-stroke:none"
           d="m 490.78597,-109.98582 q 3.08053,0.11643 4.72125,0.49799 1.6742,0.37774 3.01357,1.19558 1.40633,0.87715 2.14298,2.23271 0.77013,1.35173 0.77013,2.95896 v 6.931209 q 0,1.071491 0.70317,0.991063 0.26787,-0.03064 0.43529,-0.183725 0.20091,-0.1904 0.53575,-0.663992 0.8371,-1.234205 1.70769,-1.333783 0.56923,-0.06511 1.13845,0.472498 0.56923,0.537606 0.56923,1.140319 0,1.038007 -1.00452,2.659687 -0.97104,1.584366 -2.44434,2.924824 -1.37284,1.262 -2.98008,1.914611 -1.60724,0.686096 -3.7837,0.935038 -4.4199,0.505545 -6.89772,-1.722349 -2.47782,-2.261379 -2.47782,-6.78173 v -5.62533 q 0,-1.8751 -0.0335,-2.17263 -0.16742,-1.32021 -0.93755,-2.20316 -0.97104,-1.06088 -2.77918,-1.05497 v -3.5828 q 1.80814,-0.47469 2.57827,-1.23245 0.66968,-0.67931 0.90407,-1.47626 0.26788,-0.80077 0.26788,-2.30756 v -8.87328 q 0,-2.10949 -0.83711,-3.05175 -0.80361,-0.94609 -2.9466,-1.30369 v -3.71674 l 0.87059,-0.0996 q 3.71673,-0.42512 6.32849,-0.45598 3.88416,-0.0759 6.93121,1.752 4.38641,2.61231 4.38641,8.37157 0,4.72126 -2.9466,8.07185 -1.23891,1.4141 -2.91311,2.40922 -1.64072,0.99128 -5.02261,2.38262 z"
           id="path192" /><path
           style="color:#000000;-inkscape-font-specification:Stencil;fill:#ffff00;-inkscape-stroke:none"
           d="m 480.50635,-132.11497 v 39.3438 q 0,1.30588 0.50226,1.817661 0.26788,0.304201 0.50226,0.377845 0.23439,0.04016 1.54027,0.225634 1.60724,0.18449 1.60724,1.65779 0,0.870586 -0.87059,1.505908 -0.6362,0.474577 -2.1095,0.643092 l -1.13845,0.130215 -14.93391,1.70813 -0.87058,0.09958 q -1.20543,0.137876 -1.87511,-0.22082 -0.6362,-0.396008 -0.6362,-1.23311 0,-1.372848 1.33937,-1.961338 1.10497,-0.49471 1.27239,-0.580828 0.20091,-0.123432 0.40181,-0.447767 0.40181,-0.581704 0.40181,-1.753647 V -124.3204 q 0,-1.17194 -0.40181,-1.66172 -0.2009,-0.27838 -0.40181,-0.32237 -0.16742,-0.0813 -1.27239,-0.32324 -1.33937,-0.2821 -1.33937,-1.65495 0,-0.8371 0.6362,-1.34516 0.66968,-0.54538 1.87511,-0.68325 l 0.87058,-0.0996 z"
           id="path193" /><path
           style="color:#000000;-inkscape-font-specification:Stencil;fill:#ffff00;-inkscape-stroke:none"
           d="m 443.27204,-82.15036 v -3.616281 q 2.17647,-0.583784 3.5828,-1.347352 1.43981,-0.767399 2.87963,-2.170995 1.43981,-1.403596 2.27692,-2.805223 0.87058,-1.438939 1.64072,-3.703493 0.36832,-1.113618 0.77013,-1.527902 0.40181,-0.447768 1.10497,-0.528195 0.93756,-0.107237 1.30588,0.419864 0.36833,0.493616 0.36833,1.866463 v 11.819881 z"
           id="path194" /><path
           style="color:#000000;-inkscape-font-specification:Stencil;fill:#ffff00;-inkscape-stroke:none"
           d="m 443.07114,-103.45674 v -3.88416 q 1.94207,-1.15968 2.87963,-2.37189 0.93755,-1.21222 1.37284,-3.10363 0.26788,-1.30303 0.70317,-1.8216 0.43529,-0.55205 1.23891,-0.64397 1.07149,-0.12255 1.4733,0.66859 0.23439,0.40849 0.23439,1.94875 v 12.757438 q 0,1.573752 -0.36833,2.218595 -0.33484,0.641012 -1.27239,0.748249 -0.77013,0.08809 -1.20543,-0.330901 -0.43529,-0.418989 -0.70316,-1.493325 -0.56923,-2.245296 -1.64072,-3.361646 -1.03801,-1.12019 -2.71221,-1.3305 z"
           id="path195" /><path
           style="color:#000000;-inkscape-font-specification:Stencil;fill:#ffff00;-inkscape-stroke:none"
           d="m 443.23856,-127.8523 13.49408,-1.54345 v 11.85337 q 0,1.03801 -0.40181,1.55274 -0.40181,0.51474 -1.27239,0.61431 -0.73665,0.0843 -1.07149,-0.1788 -0.33484,-0.26306 -0.6362,-1.16614 -1.2724,-3.73862 -3.75022,-5.49774 -2.44434,-1.76294 -6.36197,-1.71666 z"
           id="path196" /><path
           style="color:#000000;-inkscape-font-specification:Stencil;fill:#ffff00;-inkscape-stroke:none"
           d="m 440.25847,-127.51144 v 45.70577 l -14.90041,1.704298 -0.87059,0.09958 q -1.20543,0.137876 -1.87511,-0.220819 -0.6362,-0.396009 -0.6362,-1.233111 0,-1.372848 1.33937,-1.961338 1.10497,-0.49471 1.27239,-0.580828 0.20091,-0.123432 0.40181,-0.447767 0.40181,-0.581704 0.40181,-1.753647 v -33.517568 q 0,-1.17194 -0.40181,-1.66173 -0.2009,-0.27838 -0.40181,-0.32237 -0.16742,-0.0813 -1.27239,-0.32324 -1.33937,-0.2821 -1.33937,-1.65494 0,-0.8371 0.6362,-1.34517 0.66968,-0.54537 1.87511,-0.68325 l 0.87059,-0.0996 z"
           id="path197" /><path
           style="color:#000000;-inkscape-font-specification:Stencil;fill:#ffff00;-inkscape-stroke:none"
           d="m 379.88667,-120.60616 8.80632,-1.00726 v 4.05157 q -1.57376,1.08408 -2.44434,2.58999 -1.43982,2.4416 -1.94208,5.61307 l -0.33484,2.08083 q -0.16742,0.99018 -0.73665,1.62452 -0.53575,0.59703 -1.37285,0.69277 -0.87058,0.0996 -1.43981,-0.43803 -0.53575,-0.54143 -0.53575,-1.51247 z"
           id="path198" /><path
           style="color:#000000;-inkscape-font-specification:Stencil;fill:#ffff00;-inkscape-stroke:none"
           d="m 417.85762,-124.94925 v 13.69499 q 0,0.97104 -0.56923,1.63886 -0.53574,0.66399 -1.40633,0.76357 -0.8371,0.0958 -1.40633,-0.37489 -0.53575,-0.50795 -0.70317,-1.45984 l -0.33484,-2.00423 q -0.50226,-3.05657 -1.94207,-5.16881 -0.90407,-1.30292 -2.44434,-2.03082 v -4.05157 z"
           id="path199" /><path
           style="color:#000000;-inkscape-font-specification:Stencil;fill:#ffff00;-inkscape-stroke:none"
           d="m 406.27213,-123.62411 v 39.343798 q 0,1.30588 0.50226,1.81766 0.26787,0.304203 0.50226,0.377845 0.23439,0.04016 1.54027,0.225634 1.60724,0.18449 1.60724,1.65779 0,0.870586 -0.87059,1.505909 -0.6362,0.474577 -2.14298,0.646921 l -1.10498,0.126387 -14.9339,1.708129 -1.10497,0.126386 q -1.4733,0.168515 -2.24344,-0.17869 -0.73665,-0.38452 -0.73665,-1.28859 0,-1.4733 1.60724,-2.02546 1.30588,-0.484206 1.54027,-0.577984 0.23439,-0.127261 0.46878,-0.488911 0.50226,-0.626678 0.50226,-1.932558 v -39.343796 z"
           id="path200" /><path
           style="color:#000000;-inkscape-font-specification:Stencil;fill:#ffff00;-inkscape-stroke:none"
           d="m 365.72291,-73.280345 v -3.750217 q 1.64072,-0.489022 2.57828,-0.964584 0.97103,-0.479391 1.84162,-1.282133 1.40633,-1.26583 2.57827,-3.341953 1.17195,-2.076124 1.9086,-4.537751 0.53574,-1.902902 0.97104,-2.521921 0.46877,-0.656331 1.33936,-0.755908 0.93755,-0.107237 1.37285,0.613108 0.2009,0.345346 0.2009,1.450321 v 13.628021 z"
           id="path201" /><path
           style="color:#000000;-inkscape-font-specification:Stencil;fill:#ffff00;-inkscape-stroke:none"
           d="m 363.0107,-72.970125 -14.90042,1.7043 -0.87058,0.09958 q -1.20543,0.137876 -1.87511,-0.220819 -0.6362,-0.396009 -0.6362,-1.233111 0,-1.372848 1.33936,-1.961336 1.10498,-0.494712 1.2724,-0.580829 0.2009,-0.123431 0.40181,-0.447768 0.40181,-0.581704 0.40181,-1.753647 v -33.517575 q 0,-1.17194 -0.40181,-1.66172 -0.20091,-0.27838 -0.40181,-0.32237 -0.16742,-0.0813 -1.2724,-0.32324 -1.33936,-0.2821 -1.33936,-1.65495 0,-0.8371 0.6362,-1.34516 0.66968,-0.54538 1.87511,-0.68325 l 0.87058,-0.0996 14.9339,-1.70813 1.13846,-0.13021 q 1.4733,-0.16852 2.1095,0.16052 0.87059,0.43617 0.87059,1.30676 0,1.4733 -1.60724,2.02546 -1.30588,0.45072 -1.54027,0.57798 -0.23439,0.12726 -0.50226,0.45926 -0.50226,0.66016 -0.50226,1.93255 z"
           id="path202" /><path
           style="color:#000000;-inkscape-font-specification:Stencil;fill:#ffff00;-inkscape-stroke:none"
           d="m 325.7764,-68.711292 v -3.616281 q 2.17647,-0.583784 3.5828,-1.347352 1.43982,-0.767399 2.87963,-2.170995 1.43982,-1.403596 2.27692,-2.805222 0.87059,-1.438941 1.64072,-3.703494 0.36832,-1.113618 0.77013,-1.527902 0.40181,-0.447767 1.10498,-0.528196 0.93755,-0.107236 1.30588,0.419864 0.36832,0.493618 0.36832,1.866465 v 11.819881 z"
           id="path203" /><path
           style="color:#000000;-inkscape-font-specification:Stencil;fill:#ffff00;-inkscape-stroke:none"
           d="m 325.5755,-90.017674 v -3.884153 q 1.94208,-1.159688 2.87963,-2.371899 0.93756,-1.212212 1.37285,-3.103625 0.26787,-1.303039 0.70316,-1.821599 0.4353,-0.55205 1.23891,-0.64397 1.0715,-0.12255 1.4733,0.66859 0.23439,0.40848 0.23439,1.948751 v 12.757435 q 0,1.573752 -0.36832,2.218595 -0.33484,0.641011 -1.2724,0.748249 -0.77013,0.08809 -1.20542,-0.330902 -0.4353,-0.418988 -0.70317,-1.493324 -0.56923,-2.245293 -1.64072,-3.361648 -1.03801,-1.120185 -2.71221,-1.3305 z"
           id="path204" /><path
           style="color:#000000;-inkscape-font-specification:Stencil;fill:#ffff00;-inkscape-stroke:none"
           d="m 325.74292,-114.41324 13.49409,-1.54344 v 11.85337 q 0,1.038 -0.40181,1.55274 -0.40181,0.51473 -1.2724,0.61431 -0.73665,0.0843 -1.07149,-0.1788 -0.33484,-0.26306 -0.6362,-1.16614 -1.27239,-3.73862 -3.75021,-5.49774 -2.44434,-1.76295 -6.36198,-1.71666 z"
           id="path205" /><path
           style="color:#000000;-inkscape-font-specification:Stencil;fill:#ffff00;-inkscape-stroke:none"
           d="m 322.76284,-114.07238 v 45.705777 l -14.90042,1.7043 -0.87059,0.09958 q -1.20542,0.137875 -1.8751,-0.22082 -0.6362,-0.396009 -0.6362,-1.233111 0,-1.372848 1.33936,-1.961336 1.10498,-0.494712 1.2724,-0.580829 0.2009,-0.123431 0.4018,-0.447767 0.40181,-0.581704 0.40181,-1.753647 V -106.2778 q 0,-1.17195 -0.40181,-1.66173 -0.2009,-0.27838 -0.4018,-0.32237 -0.16742,-0.0813 -1.2724,-0.32324 -1.33936,-0.2821 -1.33936,-1.65495 0,-0.8371 0.6362,-1.34516 0.66968,-0.54537 1.8751,-0.68325 l 0.87059,-0.0996 z"
           id="path206" /><path
           style="color:#000000;-inkscape-font-specification:Stencil;fill:#ffff00;-inkscape-stroke:none"
           d="m 271.73309,-62.529856 -14.9339,1.708129 -0.87059,0.09958 q -1.20542,0.137875 -1.8751,-0.22082 -0.6362,-0.396009 -0.6362,-1.233111 0,-1.372848 1.33936,-1.961336 1.10498,-0.494712 1.2724,-0.580829 0.2009,-0.123431 0.40181,-0.447768 0.4018,-0.581703 0.4018,-1.753646 v -33.517573 q 0,-1.17194 -0.4018,-1.66173 -0.20091,-0.27837 -0.40181,-0.32236 -0.16742,-0.0813 -1.2724,-0.32324 -1.33936,-0.2821 -1.33936,-1.65495 0,-0.8371 0.6362,-1.34516 0.66968,-0.54538 1.8751,-0.68325 l 0.87059,-0.0996 14.9339,-1.70813 0.87059,-0.0996 q 2.37737,-0.27192 2.37737,1.46925 0,1.40634 -1.2724,1.95368 l -1.038,0.45357 q -0.97104,0.44591 -0.97104,2.32101 v 33.517573 q 0,1.875109 0.97104,2.098884 l 1.038,0.216114 q 1.2724,0.256273 1.2724,1.662605 0,1.741172 -2.37737,2.013093 z"
           id="path207" /><path
           style="color:#000000;-inkscape-font-specification:Stencil;fill:#ffff00;-inkscape-stroke:none"
           d="m 274.54575,-87.864176 5.45791,-0.624272 v -14.599062 q 0,-1.87511 -0.97104,-2.09888 l -1.07149,-0.21228 q -1.27239,-0.25628 -1.27239,-1.66261 0,-1.74117 2.41085,-2.01692 l 0.87059,-0.0996 14.90041,-1.7043 0.90407,-0.10341 q 2.51131,-0.28724 2.51131,1.45393 0,1.37285 -1.33936,1.96134 -1.10498,0.49471 -1.30588,0.61814 -0.16742,0.0861 -0.36833,0.41046 -0.40181,0.5817 -0.40181,1.75364 v 33.383634 q 0,1.841624 1.00452,2.128537 l 1.0715,0.245767 q 1.33936,0.282098 1.33936,1.68843 0,1.774656 -2.51131,2.061898 l -0.90407,0.103407 -14.90041,1.704298 -0.93756,0.107238 q -2.34388,0.268091 -2.34388,-1.506565 0,-1.406332 1.27239,-1.98716 l 1.07149,-0.490881 q 0.97104,-0.412423 0.97104,-2.3545 v -15.469646 l -5.45791,0.624272 z"
           id="path208" /><path
           style="color:#000000;-inkscape-font-specification:Stencil;fill:#ffff00;-inkscape-stroke:none"
           d="m 228.00288,-60.44114 v 3.817185 q -2.7457,0.314051 -6.06062,-0.880542 -1.23891,-0.427524 -1.70769,-0.541326 -0.46877,-0.113803 -0.90407,-0.06401 -0.66968,0.0766 -1.00452,0.349286 -0.33484,0.239202 -1.07149,1.194046 -0.60271,0.805587 -1.30588,0.886015 -1.87511,0.214474 -1.87511,-2.665157 v -12.188206 q 0,-0.937554 0.53575,-1.635031 0.53574,-0.730958 1.33936,-0.856361 0.73665,-0.117737 1.13846,0.305078 0.43529,0.385505 0.73665,1.489494 0.77013,2.791545 2.20995,5.138165 1.4733,2.342791 3.41537,3.861831 1.97557,1.582176 4.55384,1.789537 z"
           id="path209" /><path
           style="color:#000000;-inkscape-font-specification:Stencil;fill:#ffff00;-inkscape-stroke:none"
           d="m 232.38929,-100.78891 v -3.68325 q 2.00905,-0.0959 3.48235,0.13743 1.4733,0.19981 4.18551,1.02805 0.66968,0.19128 1.10497,0.14149 0.6362,-0.0728 0.93756,-0.54253 l 0.73665,-1.0553 q 0.53574,-0.79792 1.30588,-0.88601 0.90407,-0.10341 1.30588,0.52031 0.43529,0.58641 0.43529,1.99274 v 11.049752 q 0,0.971038 -0.56923,1.672344 -0.53575,0.663991 -1.40633,0.763568 -0.66968,0.0766 -1.23891,-0.293588 -0.30136,-0.233402 -0.50226,-0.578748 -0.16742,-0.38266 -0.33484,-1.267582 -0.36833,-1.59859 -1.2724,-3.236356 -0.90407,-1.637765 -2.1095,-2.872736 -2.41085,-2.436464 -6.06062,-2.889584 z"
           id="path210" /><path
           style="color:#000000;-inkscape-font-specification:Stencil;fill:#ffff00;-inkscape-stroke:none"
           d="m 229.74405,-104.33702 v 3.85067 q -2.07601,0.806679 -3.18099,2.138493 -1.07149,1.294499 -1.07149,3.035671 0,1.674204 0.90407,2.843192 0.90407,1.135505 2.9466,2.04034 1.40633,0.609279 6.36198,2.218922 3.01357,0.961189 4.65429,1.845014 1.6742,0.846513 3.1475,2.25175 3.95112,3.7001 3.95112,9.425878 0,4.319447 -2.14298,8.147357 -2.14298,3.827909 -5.8932,6.299386 -2.00904,1.301282 -4.4199,2.179749 -2.37737,0.908119 -4.45338,1.145571 v -3.817185 q 2.91311,-1.036365 4.18551,-2.420812 1.30588,-1.421761 1.30588,-3.564742 0,-2.243434 -2.00905,-3.721328 -1.33936,-0.95178 -5.08958,-2.163553 -4.11854,-1.337064 -5.65881,-1.931023 -1.50678,-0.59779 -2.91311,-1.474942 -6.29501,-3.766848 -6.29501,-11.233798 0,-3.817186 1.57375,-7.211661 1.57375,-3.427962 4.38642,-5.725229 3.91764,-3.1938 9.71038,-4.15772 z"
           id="path211" /></g></clipPath><clipPath
       clipPathUnits="userSpaceOnUse"
       id="clipPath281"><g
         id="g283"
         transform="translate(-870.99033,425.93552)"><path
           style="color:#000000;-inkscape-font-specification:Stencil;fill:#ffff00;-inkscape-stroke:none"
           d="m 1098.9932,-486.37666 v 3.81718 q -2.7457,0.31406 -6.0606,-0.88054 -1.2389,-0.42752 -1.7077,-0.54132 -0.4688,-0.11381 -0.9041,-0.064 -0.6696,0.0766 -1.0045,0.34928 -0.3348,0.23921 -1.0715,1.19405 -0.6027,0.80559 -1.3059,0.88601 -1.8751,0.21448 -1.8751,-2.66515 v -12.18821 q 0,-0.93755 0.5358,-1.63503 0.5357,-0.73096 1.3393,-0.85636 0.7367,-0.11774 1.1385,0.30508 0.4353,0.3855 0.7367,1.48949 0.7701,2.79155 2.2099,5.13817 1.4733,2.34279 3.4154,3.86183 1.9755,1.58217 4.5538,1.78953 z"
           id="path281" /><path
           style="color:#000000;-inkscape-font-specification:Stencil;fill:#ffff00;-inkscape-stroke:none"
           d="m 1103.3796,-526.72443 v -3.68325 q 2.0091,-0.0959 3.4824,0.13743 1.4733,0.19981 4.1855,1.02805 0.6697,0.19128 1.105,0.14149 0.6362,-0.0728 0.9375,-0.54253 l 0.7367,-1.0553 q 0.5357,-0.79792 1.3058,-0.88601 0.9041,-0.10341 1.3059,0.52031 0.4353,0.58641 0.4353,1.99274 v 11.04975 q 0,0.97104 -0.5692,1.67235 -0.5358,0.66399 -1.4063,0.76356 -0.6697,0.0766 -1.239,-0.29358 -0.3013,-0.23341 -0.5022,-0.57875 -0.1674,-0.38266 -0.3349,-1.26758 -0.3683,-1.59859 -1.2724,-3.23636 -0.904,-1.63776 -2.1095,-2.87274 -2.4108,-2.43646 -6.0606,-2.88958 z"
           id="path282" /><path
           style="color:#000000;-inkscape-font-specification:Stencil;fill:#ffff00;-inkscape-stroke:none"
           d="m 1100.7344,-530.27254 v 3.85067 q -2.076,0.80668 -3.181,2.13849 -1.0715,1.2945 -1.0715,3.03567 0,1.67421 0.9041,2.8432 0.904,1.1355 2.9466,2.04034 1.4063,0.60927 6.362,2.21892 3.0135,0.96119 4.6542,1.84501 1.6742,0.84652 3.1475,2.25175 3.9512,3.7001 3.9512,9.42588 0,4.31945 -2.143,8.14736 -2.143,3.82791 -5.8932,6.29938 -2.0091,1.30128 -4.4199,2.17975 -2.3774,0.90812 -4.4534,1.14557 v -3.81718 q 2.9131,-1.03637 4.1855,-2.42081 1.3059,-1.42177 1.3059,-3.56475 0,-2.24343 -2.0091,-3.72132 -1.3393,-0.95178 -5.0895,-2.16356 -4.1186,-1.33706 -5.6589,-1.93102 -1.5067,-0.59779 -2.9131,-1.47494 -6.295,-3.76685 -6.295,-11.2338 0,-3.81719 1.5738,-7.21166 1.5737,-3.42796 4.3864,-5.72523 3.9176,-3.1938 9.7104,-4.15772 z"
           id="path283" /></g></clipPath></defs><g
     id="layer1"><g
       id="g1319" /><g
       id="g73"
       transform="matrix(0.09689709,0,0,0.09689709,-143.85579,-155.38894)"><rect
         style="fill:#ffffff;stroke:none;stroke-width:0.264583;stroke-linecap:round;stroke-linejoin:round;stroke-dasharray:none"
         id="rect56"
         width="273.056"
         height="273.056"
         x="1484.6245"
         y="1603.6492" /><path
         id="path56"
         style="fill:#000000;stroke:none;stroke-width:0.264583;stroke-dasharray:none"
         d="m 1586.369,1799.3045 c 4.87,5.5367 5.3995,6.3413 8.0192,6.9428 2.5676,2.8664 5.5237,3.6418 7.7845,6.1525 9.8778,4.1135 16.0055,4.5761 25.6625,2.2583 3.8912,-2.7461 16.9868,-4.6069 23.3852,-11.5543 2.4852,-2.6985 4.4296,-3.5401 6.1424,-6.017 0.4571,-0.6609 6.0322,24.6611 6.9202,28.9335 -14.8267,19.6399 -53.9718,39.0751 -81.1672,17.0457 -0.2385,-0.35 6.5293,-11.4393 7.1578,-21.4584 -1.5139,-8.7249 -4.5471,-22.3868 -3.9046,-22.3031 z m -54.916,31.0196 c -17.605,9.043 -37.695,18.0857 -46.8285,46.3811 h 273.056 c -2.5575,-25.8054 -43.6181,-53.3894 -41.492,-55.9261 2.6813,-3.1993 -35.5104,-11.9875 -35.9675,-15.287 -1.0768,-7.771 -20.3909,-13.8681 -20.1877,-14.5669 l 1.851,-9.8821 c 2.9067,-1.5046 6.1083,-2.7153 5.4519,-7.7819 4.6608,-4.4505 4.2276,-5.8068 0.6046,-10.6361 0.7106,-0.6419 0.4517,-3.6362 1.0707,-3.3662 2.0375,0.8886 4.5896,-1.7519 5.4875,-3.8644 0.761,-1.9154 2.5324,-3.629 1.6346,-5.8761 -0.5297,-2.2758 -7.0073,0.6662 -6.4105,-1.0258 0.7839,-2.2224 -1.2042,-3.9597 0.6325,-8.2847 1.7947,-4.2259 1.1418,-3.7023 1.4418,-7.8047 0.1576,-2.1555 1.9331,-2.9018 2.3947,-5.3583 1.2654,-3.8371 1.2488,-5.4837 -0.1111,-8.2528 11.4624,-2.4791 20.8848,-5.5492 27.62,-8.9989 2.3613,-1.2096 3.2766,-1.7735 5.1139,-3.1512 4.3121,-3.2337 5.6253,-6.6512 3.359,-8.7401 -1.7455,-1.609 -4.9408,-2.4586 -10.5477,-2.8045 -4.2951,-0.265 -10.1913,0.1182 -18.2397,1.185 -2.3948,0.3174 -9.9765,1.5731 -11.3172,1.8743 -0.3564,0.077 -0.6906,0.1186 -0.7436,0.087 -0.052,-0.032 -0.1393,-0.7021 -0.1933,-1.4883 -0.1007,-1.4715 -0.2792,-3.5186 -0.9033,-10.342 -1.1767,-12.8651 -1.5661,-15.7191 -2.391,-17.5219 -0.755,-1.6504 -2.0603,-2.8982 -3.9166,-3.7445 -0.9358,-0.4266 -1.5325,-0.5931 -4.4235,-1.2335 -1.8605,-0.4121 -5.6779,-1.6589 -7.5975,-2.481 -1.3154,-0.5634 -4.0849,-1.988 -5.0058,-2.575 -3.8303,-2.4409 -7.1953,-5.6004 -11.5756,-10.8702 -3.6857,-4.4341 -5.7915,-5.7057 -10.2949,-6.2192 -0.7261,-0.083 -1.4769,-0.1121 -2.2252,-0.093 h 5e-4 c -2.2449,0.055 -4.4687,0.5476 -5.9413,1.3633 -1.1003,0.6095 -3.1332,2.5693 -5.211,5.0234 -5.2258,6.1724 -10.1979,9.478 -16.8005,11.1694 -1.8882,0.4837 -3.4726,0.7329 -7.5246,1.1834 -2.5281,0.2811 -3.9133,0.7053 -5.2871,1.6185 -2.4212,1.6097 -3.574,3.8227 -4.5573,8.7483 -0.7703,3.8589 -1.7998,10.8921 -2.5745,17.5886 -0.236,2.0399 -0.458,3.7379 -0.493,3.7729 -0.035,0.035 -1.4342,-0.3977 -3.1094,-0.9617 -4.3127,-1.452 -5.9076,-1.9412 -8.817,-2.7027 -8.1718,-2.1384 -16.0235,-3.1919 -21.2421,-2.8505 -5.0985,0.3336 -7.6869,1.8852 -7.6869,4.6085 0,1.8621 1.0832,3.8041 3.4153,6.1237 2.5949,2.5813 5.7399,4.8299 10.465,7.4822 4.0351,2.2649 10.0256,5.0199 15.2776,7.0254 2.7356,5.7082 -0.8757,5.2972 -0.6775,11.7579 -7.5616,3.4605 -9.2554,14.794 -0.3338,16.6269 0.2628,2.2921 0.7497,4.413 3.3652,4.0551 0.5223,4.2668 0.059,5.1285 0.6464,7.4972 0.5476,1.6572 1.6925,8.5848 2.5833,9.7793 -2.5766,1.6159 -0.2962,4.9559 0.7085,5.7438 -1.025,0.2393 -1.4107,0.9168 -1.774,1.4423 -2.9699,-1.4449 -0.7314,-8.2778 0.2708,-8.0429 -2.9499,0.1582 -5.0301,7.1198 -0.6868,9.3518 -0.6265,3.4944 0.068,1.3208 0.1566,3.3425 -0.2281,0.9966 2.2333,5.6944 3.9015,6.6512 -2.101,3.3295 -5.8898,1.0999 -8.0382,0.5416 2.3914,4.0312 7.7472,2.3368 8.4537,0.9896 0.5146,-0.6015 1.1411,-0.8672 0.7969,1.1255 -0.32,2.6659 1.2206,5.8343 6.5665,4.3941 0.7856,0.6778 0.2587,3.2122 -2.5079,3.1507 1.0213,0.2035 1.1622,0.3471 1.8594,0.3798 -0.2899,0.089 -0.8534,0.8191 -1.9793,0.9731 1.4257,1.3206 4.0738,-1.2494 4.6251,-3.6701 0.3197,3.5752 1.936,6.0157 3.8075,8.2331 0.5508,0.9752 -2.7122,18.0529 -6.3393,24.5246 -15.8102,9.0884 -34.996,4.4613 -44.6643,10.6092 z m 90.3888,-179.3811 c 0.7126,0.024 1.325,0.5592 1.325,1.3173 0,0.3093 -0.075,0.6376 -0.1675,0.7296 -0.1934,0.1932 -0.1214,0.4018 0.8682,2.5208 1.4479,3.1004 2.7233,5.8523 3.3533,7.2326 0.3665,0.8036 0.7157,1.4938 0.7757,1.5338 0.1105,0.074 2.2268,0 8.4206,-0.2796 3.3288,-0.1522 3.3952,-0.161 3.7559,-0.5219 0.843,-0.843 2.2863,-0.2028 2.2763,1.0118 0,0.7413 -0.3374,1.1823 -1.079,1.4273 -0.6283,0.2074 -0.5052,0.046 -4.1072,5.3759 -1.059,1.567 -2.2035,3.2492 -2.5435,3.7383 l -0.6176,0.8894 1.8743,2.867 c 1.0308,1.5771 2.5172,3.8563 3.3032,5.0648 0.8063,1.2392 1.5259,2.1973 1.6511,2.1973 0.4061,0 1.0246,0.4115 1.2014,0.7994 0.3877,0.8513 0.01,1.6693 -0.9146,1.974 -0.4055,0.1339 -0.584,0.1215 -0.9431,-0.064 -0.2437,-0.1259 -0.5076,-0.3496 -0.5866,-0.4971 -0.1184,-0.2212 -0.3941,-0.2847 -1.5745,-0.3607 -0.7873,-0.051 -3.1413,-0.2247 -5.2307,-0.3865 -2.0893,-0.1617 -4.0706,-0.2947 -4.4034,-0.2951 h -0.6051 l -0.9819,2.0087 c -3.0185,6.1775 -4.3152,8.9688 -4.2302,9.1064 0.1787,0.2891 0.096,1.1223 -0.1478,1.495 -0.1338,0.2043 -0.4463,0.4416 -0.694,0.5286 v 0.01 c -0.2477,0.086 -0.4551,0.1484 -0.4651,0.1374 -0.01,-0.011 -0.1577,-0.048 -0.3323,-0.082 -0.5404,-0.1053 -1.0707,-0.7572 -1.0707,-1.3162 0,-0.2755 0.067,-0.6243 0.1468,-0.7747 0.1127,-0.2106 0.032,-0.5205 -0.3468,-1.342 -0.2713,-0.5874 -0.7059,-1.5283 -0.9658,-2.0908 -0.2599,-0.5625 -1.1337,-2.4692 -1.942,-4.237 -0.8082,-1.768 -1.5414,-3.2876 -1.6284,-3.3776 -0.1108,-0.114 -0.643,-0.1301 -1.7657,-0.055 -0.8839,0.06 -3.4479,0.2268 -5.6979,0.3716 l -4.0912,0.2635 -0.4579,0.4858 c -0.5552,0.5888 -1.2603,0.6543 -1.8706,0.1742 -0.5464,-0.4296 -0.7136,-0.9296 -0.5137,-1.5354 0.1891,-0.5731 0.6356,-0.9291 1.1648,-0.9291 0.3268,0 0.626,-0.3776 2.2856,-2.8856 4.4655,-6.7484 4.8639,-7.3803 4.7594,-7.5489 -0.059,-0.096 -1.5291,-2.3134 -3.2664,-4.9289 -2.8418,-4.2783 -3.2046,-4.7642 -3.6195,-4.8472 -0.2537,-0.051 -0.6238,-0.2549 -0.8226,-0.4538 -0.6498,-0.6496 -0.4093,-1.8081 0.4687,-2.2572 0.5277,-0.2698 1.0315,-0.1865 1.5384,0.2543 l 0.48,0.417 2.9223,0.1008 c 1.6072,0.055 3.7109,0.1626 4.6752,0.2366 2.3255,0.173 4.0178,0.1718 4.0178,-0.01 0,-0.08 1.1524,-2.4939 2.5606,-5.364 l 2.5611,-5.2183 -0.093,-0.8248 c -0.1091,-0.9634 0.037,-1.32 0.6635,-1.6236 0.2408,-0.1167 0.4896,-0.166 0.7271,-0.1582 z m -46.2638,64.4225 c 1.6968,0.2621 8.2695,2.3803 8.4894,2.4267 0.1692,0.036 1.4913,0.3421 2.9378,0.68 1.4464,0.3378 3.1559,0.7364 3.7987,0.8858 1.3443,0.3123 6.2083,1.2724 9.2046,1.8169 5.0812,0.9233 8.2928,1.3879 12.1269,1.7539 7.8477,0.7493 10.244,0.8828 16.5101,0.8728 5.3866,0 7.3499,-0.077 13.4421,-0.5085 4.0157,-0.2842 12.5934,-1.227 14.565,-1.6009 0.4171,-0.079 4.9135,-0.7719 7.6455,-1.4273 0.2097,0.232 -2.3788,6.089 -1.8205,10.6438 0.189,1.5463 0.3126,3.4404 0.3126,6.2652 -0.063,9.1386 -2.3066,19.4077 -4.054,24.9711 -0.6554,1.9765 -5.328,13.9782 -6.889,15.3774 -4.4944,4.0303 -6.0124,-9.6399 -17.6651,-12.0318 -6.9798,-3.7812 -8.9291,0.9957 -11.931,0.044 -3.6335,-0.3104 -7.14,-1.4252 -11.3068,1.6418 -8.9352,1.3578 -13.6811,9.2826 -16.0466,12.4514 -2.1008,-1.3483 -3.6851,-2.9331 -12.4644,-8.9188 -0.5952,0.1169 -4.7362,-9.806 -5.042,-14.9816 0.1361,-1.1323 0.015,-17.0041 -2.8613,-32.9251 0.2961,-3.399 -1.9959,-7.0972 0.6521,-7.4238 0.011,-0.05 0.1534,-0.05 0.3959,-0.013 z m -11.8308,0.8609 c -0.471,2.1938 -0.312,3.6946 -0.3297,5.3898 -0.6875,-0.1967 -1.432,0.2357 -2.1658,0.5488 -0.079,-1.3676 0.165,-2.5037 0.4206,-3.6323 0.4968,-0.8521 1.238,-1.6 2.0749,-2.3063 z m 109.078,2.8458 c -0.3955,1.9776 -0.8684,3.589 -1.511,4.393 0.1799,-1.1993 0.381,-2.5632 0.1396,-4.1837 z m -112.8928,4.7145 c 0.7463,4.2646 -4.0131,2.6793 -2.2732,10.0309 -0.257,1.4613 0.1152,2.6364 0.2671,3.9119 -0.833,-0.8874 -1.7441,-1.6746 -2.3073,-2.9089 -0.4714,-4.8649 1.5046,-8.2089 4.3134,-11.0339 z m 107.0245,9.973 c 1.2737,-0.062 2.5116,2.2555 2.3027,6.9267 -0.3677,3.4441 -0.4367,8.269 -1.1793,9.9818 -1.4382,7.3697 -1.7857,19.0683 -6.8285,20.3419 l 0.7937,-11.6349 c 1.6879,-4.6455 2.1144,-10.4215 2.4981,-16.1934 -0.5196,-6.2236 0.9698,-9.3515 2.4133,-9.4221 z m -100.0704,0.025 c 2.219,0.07 4.5085,3.194 3.7098,9.4093 0.5898,5.7632 1.2454,11.5324 3.8401,16.1716 l 1.2196,11.6189 c -9.8869,-1.3126 -8.2869,-12.9549 -10.497,-20.3145 -1.1415,-1.7105 -1.2471,-6.5285 -1.8123,-9.9679 -0.3213,-4.6647 1.5818,-6.9796 3.5398,-6.9174 z m 99.5459,30.6281 c 0.6219,0.1748 1.1916,0.4715 1.6645,0.9937 0.061,3.805 -0.9061,4.7833 -1.8103,5.9346 -0.01,-0.4218 -0.1966,-0.6604 -0.5017,-0.784 0.4288,-1.8022 -0.07,-3.3514 -0.1308,-5.0203 0.1984,-0.5889 0.4817,-0.8788 0.7783,-1.124 z m -98.1088,3.8489 c 0.4742,1.1794 1.1345,1.9858 1.7265,2.9295 -0.034,0.3093 -0.488,0.3672 -1.0046,0.3871 0.3576,0.3417 0.7533,0.568 1.0206,1.1808 -0.6078,0.7523 -0.8897,1.7 -1.1802,2.6427 -0.8825,-2.0279 -1.7414,-4.0701 -1.3777,-6.8311 0.2492,-0.2605 0.5349,-0.2672 0.8154,-0.309 z m 4.3946,2.9946 c 0.5217,-0.01 0.7382,0.066 1.0247,0.1189 -1.4329,0.7823 -0.3316,2.2682 -1.156,3.1326 -0.3189,-0.5574 -0.601,-1.1519 -0.8206,-1.8087 -0.1935,-0.8776 0.2154,-1.1954 0.7085,-1.4355 0.088,0 0.1689,-0.01 0.2434,-0.01 z m 2.2737,1.0888 0.2796,2.5358 c 0.566,2.2534 0.7357,3.9666 1.0816,5.9108 -0.6346,-1.6906 -1.2572,-3.4983 -1.9389,-4.7176 0.027,-1.8109 -0.043,-3.2542 0.5777,-3.729 z m 65.6312,4.8519 c -4.9975,4.2291 -6.7352,6.0903 -12.1192,8.9848 -4.5326,-0.4016 -8.8886,-0.1298 -12.2494,0.5356 -3.9675,-1.4175 -9.2293,-4.894 -12.1346,-7.2425 1.8524,-3.0624 15.5971,-5.4607 18.3141,-4.0907 3.0559,-1.1501 10.5899,-2.1971 18.1891,1.8128 z m -69.4433,4.4726 h 5e-4 c 1.6917,1.1732 3.4124,2.2205 5.5361,1.5214 -0.1406,0.6966 -0.022,1.3932 0.073,2.0898 -3.8657,0.5395 -5.196,-1.1356 -5.6094,-3.6112 z" /></g></g></svg>
